PathFileType	4	(X/Y/Z)	C:\Users\°ÂÌØÂü\Desktop\20210112\bx_n_5_901-Unnamed.trc
DataRate	CameraRate	NumFrames	NumMarkers	Units	OrigDataRate	OrigDataStartFrame	OrigNumFrames
50.00	50.00	       9	0	mm	50.00	236	       470
Frame#	Time	
		

236	4.700	-702.28430	107.95570	1851.59106	-612.99884	246.62331	1068.39453	-608.94525	108.46837	1361.28687	-714.41742	289.03571	1543.19812	-591.53925	-4.63098	805.11615				-704.76654	274.74808	746.02850	-699.19476	71.90382	572.91241	-735.37933	255.32336	643.82629	-683.19806	211.36244	536.31854	-776.60004	261.30444	502.66983	-517.62451	-72.86787	143.54889	-548.30994	-24.21439	162.61375	-793.49249	37.00641	174.23108	-600.28003	26.84902	168.71799				-714.01715	155.97157	218.09248	-796.71271	180.35106	183.69278	-769.19025	229.63220	204.75154	-592.99640	218.81441	173.89392	-882.50342	296.22003	144.72592	-556.25897	254.42368	164.17935	-660.32593	298.85181	156.76767	-623.92273	306.65646	158.45709	-528.30304	304.09167	146.46471	-708.36182	-70.23744	1535.16113	-806.18817	97.48060	1056.25024	-766.40167	-45.61081	490.15356	-760.21204	-21.97179	207.12189	-674.85980	51.52113	161.37828	-875.95447	-78.70157	141.15225	-667.47394	-67.73911	876.14709	-690.30859	-58.18711	761.20093	-716.08490	-35.81803	618.68726	-723.69031	-34.21054	571.04669	-676.03827	173.78633	159.76956	-648.78546	-69.26702	160.58882	-697.79230	149.94025	576.96674	-605.84467	-74.28331	157.31847	-696.75214	287.04245	875.57159	-598.32849	230.24294	794.26929	-737.63104	251.89453	576.88428	-673.71350	12.95814	521.10632	-719.73407	67.38701	217.42972	
237	4.720	-699.38354	108.35113	1851.63171	-613.06824	247.14746	1068.84595	-608.66907	108.31605	1361.27429	-713.97156	289.16931	1543.28015	-591.98413	-4.70871	804.96375				-704.71191	274.58340	746.10828	-699.19476	71.90382	572.91241	-735.41864	255.34901	643.74744	-683.33533	211.34868	536.21136	-776.65942	261.43677	502.46344	-517.61328	-72.66147	143.53160	-548.31287	-24.28497	162.74963	-793.55530	37.05991	174.27298	-600.34174	26.91204	168.63074				-713.87274	155.71404	218.37926	-796.63007	180.32632	183.53479	-769.15222	229.60234	204.73991	-592.98700	218.69843	174.01848	-882.44165	296.28186	144.84575	-556.38141	254.43105	164.35806	-660.48010	298.85776	156.79204	-623.86194	306.61969	158.53685	-528.24188	304.25183	146.46689	-707.98077	-70.07793	1535.07690	-806.32617	97.62479	1056.34949	-766.40167	-45.61081	490.15356	-760.21204	-21.97179	207.12189	-674.44739	51.47841	161.60577	-875.94965	-78.65163	141.20186	-667.87250	-67.84222	876.20398	-690.33704	-58.11090	761.22876	-716.11890	-35.82538	618.60614	-723.87946	-33.95017	570.98688	-676.05865	173.89282	159.27052	-648.67841	-69.21770	160.84947	-697.97540	150.14880	576.85687	-605.68719	-74.25133	157.38661	-696.63336	287.08707	875.43091	-598.21466	229.92119	794.11462	-737.83820	251.92097	576.84509	-673.72272	13.02877	521.20697	-719.44287	67.15934	217.69920	
238	4.740	-696.32446	108.81556	1851.65833	-613.09912	247.21953	1068.77051	-608.53009	108.18900	1361.24109	-713.32391	289.10583	1543.27380	-592.07935	-4.66404	804.91461				-704.76654	274.74808	746.02850	-699.52673	72.09415	572.84729	-735.43207	255.43446	643.67401	-683.52338	211.19136	536.06366	-776.60242	261.48911	502.70831	-517.60315	-72.65009	143.58653	-548.42773	-24.35551	162.71945	-793.47717	37.05912	174.34393	-600.31708	27.00307	168.53461				-713.97943	155.94270	218.53836	-796.62964	180.34602	183.69041	-769.15222	229.60234	204.73991	-593.01648	218.69557	173.75626	-882.55408	296.28027	144.78130	-556.31708	254.46187	164.27913	-660.36694	298.91788	156.64217	-623.89435	306.69592	158.58977	-528.13666	304.30460	146.43042	-707.55963	-70.07639	1535.09155	-806.19318	97.56943	1056.40808	-766.40167	-45.61081	490.15356	-760.21204	-21.97179	207.12189	-674.72760	51.59531	161.51840	-875.85522	-78.73365	141.22168	-668.13647	-67.84421	876.24896	-690.63293	-58.18992	761.27496	-716.48364	-35.13525	618.18481	-723.87946	-33.92452	570.96851	-675.96075	174.05557	159.28613	-648.68219	-69.18705	160.61853	-697.97540	150.14880	576.85687	-605.72198	-74.30423	157.31381	-696.73151	286.92880	875.40668	-598.34039	230.29294	794.20770	-738.11139	252.15819	576.83185	-673.38818	12.81989	521.33545	-719.60791	67.21253	217.43230	
239	4.760	-693.16290	109.01581	1851.75439	-613.59821	246.54001	1068.42944	-608.36627	108.35464	1361.27454	-712.50555	289.09424	1543.24316	-592.28198	-4.60373	804.98212				-705.03754	274.65500	746.01563	-699.77399	72.27108	572.84570	-735.86682	255.43877	644.20782	-683.70282	211.19627	536.23566	-776.98383	261.57675	502.39737	-517.76843	-72.83019	143.66963	-548.39032	-24.37128	162.59178	-793.17596	36.98533	173.88916	-600.22516	26.95874	168.87187				-714.28162	155.74887	218.48077	-796.57654	180.37540	183.72005	-769.17358	229.51164	204.63736	-592.94702	218.73930	173.90086	-882.43616	296.14734	144.72641	-556.34296	254.42307	164.21004	-660.42432	298.92648	156.61868	-623.94043	306.73538	158.36528	-528.27039	304.32910	146.70470	-706.75861	-69.96803	1535.19958	-806.70087	97.64995	1056.63818	-766.51416	-45.76463	490.14423	-760.27997	-21.89355	207.04762	-674.85980	51.52113	161.37828	-875.95618	-78.67986	141.17555	-668.27753	-67.69668	876.12018	-691.30634	-57.96605	760.92310	-716.29346	-35.81710	618.48523	-723.90717	-34.10750	571.23224	-675.99951	173.92093	159.52786	-648.79047	-69.27923	160.77554	-698.19189	150.28384	576.88239	-605.72198	-74.30423	157.31381	-697.00885	287.35266	875.67938	-598.62854	230.27827	794.19495	-738.57819	251.99834	576.84546	-673.72272	13.02877	521.20697	-719.58899	67.37139	217.68002	
240	4.780	-689.54901	108.99342	1851.78333	-613.75079	246.68745	1068.38708	-608.12128	108.36738	1361.10950	-711.99280	289.10269	1543.23181	-592.68750	-4.96618	805.21533				-705.34369	274.33722	745.81232	-700.04883	71.98109	572.84650	-736.10773	255.86247	644.06183	-683.83746	211.29022	536.30768	-777.05048	261.39923	502.38412	-517.82349	-72.61913	143.26855	-548.30286	-24.37455	162.58325	-793.63293	37.01165	174.30505	-600.27197	26.87476	168.64676				-714.07062	155.82056	218.12889	-796.64404	180.43076	183.75061	-769.18890	229.60477	204.73145	-592.99640	218.81441	173.89392	-882.45593	296.22400	144.77756	-556.18439	254.49959	164.12531	-660.55969	298.98041	156.68144	-623.88489	306.75336	158.43491	-528.19952	304.38297	146.72160	-706.27539	-70.17583	1535.43457	-807.06085	97.72513	1056.62756	-766.58405	-45.69844	490.14575	-760.14124	-21.79795	207.04874	-674.70215	51.50636	161.34955	-875.96130	-78.84709	141.39201	-668.55011	-67.71724	876.10486	-691.40363	-58.06356	761.15796	-716.63354	-35.84924	618.51495	-724.01123	-34.14124	570.98315	-675.99951	173.92093	159.52786	-648.74695	-69.09844	160.52190	-698.50031	150.25256	576.69635	-605.62592	-74.15536	157.01627	-697.17377	287.45267	875.74365	-599.04205	230.67107	794.24347	-738.70862	251.88640	576.76917	-674.01569	13.07342	521.26984	-719.65796	67.17174	217.60806	
241	4.800	-685.95239	108.94906	1851.68335	-614.17035	246.68796	1068.18188	-607.81335	108.35252	1361.10803	-711.29449	289.25760	1543.26074	-592.76544	-5.06104	805.53259				-705.69055	274.35498	745.98315	-700.28088	72.00764	573.14539	-736.69989	255.54715	643.99561	-684.04364	211.32324	536.30548	-777.35510	261.49487	502.32236	-517.92078	-72.63460	143.42401	-548.30676	-24.36075	162.58575	-793.43396	37.03859	174.32053	-600.11566	26.95708	168.82202				-714.24652	155.85538	218.58228	-796.82849	180.35957	183.79666	-769.21613	229.61455	204.80536	-593.06787	218.81961	173.80528	-882.50342	296.22003	144.72592	-556.31445	254.46994	164.16170	-660.36694	298.91788	156.64217	-623.93018	306.84665	158.30885	-528.30585	304.29242	146.58966	-705.64166	-70.06935	1535.35461	-807.17194	97.65030	1056.77832	-766.76971	-45.83138	490.05930	-760.28424	-21.59643	207.03679	-674.70215	51.50636	161.34955	-875.85522	-78.73365	141.22168	-668.63519	-67.78658	875.99036	-691.63989	-58.21685	761.21991	-716.69617	-35.85449	618.37036	-724.24042	-33.98343	570.96326	-676.18341	173.98132	159.77525	-648.80371	-69.11259	160.67674	-698.91260	150.20235	576.50385	-605.67395	-74.22979	157.16501	-698.13928	287.16376	875.53241	-599.50842	230.67873	794.29773	-738.92676	252.20845	576.98181	-674.15698	13.05680	521.53223	-719.60187	67.45992	217.56609	
242	4.820	-682.11804	108.99952	1851.69861	-614.29327	246.75316	1068.23279	-607.14838	108.41460	1361.17053	-710.72992	289.02148	1543.37329	-593.07294	-4.97655	805.44141				-706.41443	274.20691	745.89453	-700.62036	72.15250	573.19781	-736.96667	255.61995	643.89191	-684.53143	211.42827	536.21063	-777.77014	261.15662	502.25894	-517.67419	-72.72733	143.37845	-548.41827	-24.25832	162.75037	-793.21863	36.95346	173.82762	-600.13281	27.00032	168.76726				-714.03137	155.91415	218.22813	-796.81598	180.28352	183.46980	-769.18628	229.49057	204.72089	-593.06787	218.81961	173.80528	-882.65271	296.18555	144.64310	-556.34033	254.43115	164.09261	-660.50879	298.97659	156.59935	-623.95349	306.94418	158.37669	-528.20001	304.45688	146.68958	-704.67444	-70.37759	1535.42627	-807.68793	97.74127	1057.08362	-766.80908	-46.00978	490.17374	-760.35309	-21.82038	207.05170	-674.70215	51.50636	161.34955	-875.87817	-78.62728	141.29668	-669.23590	-68.29857	876.13623	-691.83380	-58.89904	761.32361	-717.05762	-35.65241	618.36859	-724.28705	-34.18919	570.68970	-675.96075	174.05557	159.28613	-648.69812	-69.12144	160.62550	-699.08368	150.21796	576.50446	-605.67395	-74.22979	157.16501	-698.42401	287.02136	875.48456	-600.04187	230.45888	794.07660	-739.19434	252.36598	576.97443	-674.14966	12.92680	521.78827	-719.60791	67.21253	217.43230	
243	4.840	-678.20837	108.88255	1851.94702	-614.45105	246.60464	1068.06750	-606.80981	108.31885	1360.97974	-709.88098	289.06091	1543.40686	-593.51776	-5.31618	805.24121				-706.86188	274.24167	745.98224	-700.63568	71.95194	573.02161	-737.59497	255.62469	643.81421	-684.82892	211.52074	536.14874	-778.15063	261.02206	502.10886	-517.78619	-72.76752	143.36388	-548.35870	-24.26579	162.74329	-793.58881	37.06274	174.21643	-600.29211	26.98351	168.62193				-714.41644	155.88269	218.39482	-796.69702	180.37669	183.44060	-769.29303	229.45984	204.56123	-593.00806	218.87279	173.80763	-882.66632	296.26215	144.70044	-556.42090	254.46164	164.28386	-660.51825	298.90878	156.51772	-623.96429	306.90826	158.26718	-528.37952	304.19254	146.56532	-704.01318	-70.16909	1535.55103	-808.05396	97.44968	1057.46973	-767.15741	-46.08799	490.12796	-760.32959	-21.79706	207.11980	-674.73468	51.42526	161.48398	-875.85522	-78.73365	141.22168	-669.87787	-68.04182	876.24750	-691.95636	-59.04605	761.35199	-716.77264	-36.40349	618.84918	-724.52600	-34.31132	570.84943	-676.14459	174.11597	159.53357	-648.85425	-69.18689	160.78613	-699.54657	150.32559	576.27557	-605.64880	-74.30512	157.37498	-698.90179	286.98615	875.50409	-600.68756	230.24203	793.95154	-739.38043	252.06052	576.55054	-674.20349	13.04605	521.62305	-719.88495	67.47501	217.62068	
244	4.860	-673.81006	108.73286	1851.75537	-614.71979	246.33022	1068.18640	-606.37836	108.34390	1360.78967	-708.57318	289.72205	1543.49646	-594.08014	-5.71830	805.27545				-707.38074	273.99475	745.56671	-701.37073	71.77327	573.53046	-737.82562	255.75151	643.86438	-684.89136	211.58049	536.27539	-778.53003	261.10693	502.25415	-517.96509	-72.97300	143.29619	-548.36072	-24.28655	162.76929	-793.36194	37.18169	174.07597	-600.28503	26.76166	168.65315				-714.12366	155.95045	218.19270	-796.81598	180.28352	183.46980	-769.18036	229.50798	204.62688	-592.99640	218.81441	173.89392	-882.55072	296.24280	144.74985	-556.34296	254.42307	164.21004	-660.50983	299.00607	156.54025	-624.03027	306.85339	158.30852	-528.20001	304.45688	146.68958	-703.30206	-70.38957	1535.65259	-808.56226	97.03967	1057.67737	-767.32361	-46.19962	489.84430	-760.27997	-21.89355	207.04762	-674.72760	51.59531	161.51840	-875.85034	-78.68372	141.27127	-670.59705	-68.10813	876.21741	-692.55884	-59.09973	761.02850	-717.72345	-35.57419	618.17908	-724.75037	-34.54389	570.97327	-675.87732	173.88316	159.67357	-648.74695	-69.09844	160.52190	-700.49756	149.84331	576.25940	-605.72198	-74.30423	157.31381	-699.14880	286.88364	875.76556	-600.83228	230.08278	794.19495	-739.67896	252.03976	576.45349	-674.14966	12.92680	521.78827	-719.60791	67.21253	217.43230	
